HIERARCHY
ROOT root
{
	OFFSET	0.000000	0.000000	0.000000
	CHANNELS 6 Xposition Yposition Zposition Zrotation Yrotation Xrotation
	JOINT lhipjoint
	{
		OFFSET	0.000000	0.000000	0.000000
		CHANNELS 3 Zrotation Yrotation Xrotation
		JOINT lfemur
		{
			OFFSET	1.645494	-1.708786	0.845660
			CHANNELS 3 Zrotation Yrotation Xrotation
			JOINT ltibia
			{
				OFFSET	2.249633	-6.180820	0.000000
				CHANNELS 3 Zrotation Yrotation Xrotation
				JOINT lfoot
				{
					OFFSET	2.717752	-7.466968	0.000000
					CHANNELS 3 Zrotation Yrotation Xrotation
					JOINT ltoes
					{
						OFFSET	0.187679	-0.515643	2.247368
						CHANNELS 3 Zrotation Yrotation Xrotation
						End Site
						{
							OFFSET	0.000000	-0.000000	1.159350
						}
					}
				}
			}
		}
	}
	JOINT rhipjoint
	{
		OFFSET	0.000000	0.000000	0.000000
		CHANNELS 3 Zrotation Yrotation Xrotation
		JOINT rfemur
		{
			OFFSET	-1.588298	-1.708789	0.845662
			CHANNELS 3 Zrotation Yrotation Xrotation
			JOINT rtibia
			{
				OFFSET	-2.250064	-6.182003	0.000000
				CHANNELS 3 Zrotation Yrotation Xrotation
				JOINT rfoot
				{
					OFFSET	-2.728293	-7.495929	0.000000
					CHANNELS 3 Zrotation Yrotation Xrotation
					JOINT rtoes
					{
						OFFSET	-0.215414	-0.591846	2.106425
						CHANNELS 3 Zrotation Yrotation Xrotation
						End Site
						{
							OFFSET	-0.000000	-0.000000	1.098380
						}
					}
				}
			}
		}
	}
	JOINT lowerback
	{
		OFFSET	0.000000	0.000000	0.000000
		CHANNELS 3 Zrotation Yrotation Xrotation
		JOINT upperback
		{
			OFFSET	0.031419	2.104964	-0.110379
			CHANNELS 3 Zrotation Yrotation Xrotation
			JOINT thorax
			{
				OFFSET	-0.018626	2.108971	-0.069557
				CHANNELS 3 Zrotation Yrotation Xrotation
				JOINT lowerneck
				{
					OFFSET	-0.034945	2.110023	-0.018114
					CHANNELS 3 Zrotation Yrotation Xrotation
					JOINT upperneck
					{
						OFFSET	-0.022675	1.732376	0.004511
						CHANNELS 3 Zrotation Yrotation Xrotation
						JOINT head
						{
							OFFSET	-0.058084	1.547243	-0.617485
							CHANNELS 3 Zrotation Yrotation Xrotation
							End Site
							{
								OFFSET	-0.013955	1.714682	-0.210818
							}
						}
					}
				}
				JOINT lclavicle
				{
					OFFSET	-0.034945	2.110023	-0.018114
					CHANNELS 3 Zrotation Yrotation Xrotation
					JOINT lhumerus
					{
						OFFSET	3.448981	0.502979	0.219205
						CHANNELS 3 Zrotation Yrotation Xrotation
						JOINT lradius
						{
							OFFSET	5.419170	-0.000000	-0.000000
							CHANNELS 3 Zrotation Yrotation Xrotation
							JOINT lwrist
							{
								OFFSET	2.443730	-0.000000	0.000000
								CHANNELS 3 Zrotation Yrotation Xrotation
								JOINT lhand
								{
									OFFSET	1.221860	-0.000000	0.000000
									CHANNELS 3 Zrotation Yrotation Xrotation
									JOINT lfingers
									{
										OFFSET	0.727502	-0.000000	0.000000
										CHANNELS 3 Zrotation Yrotation Xrotation
										End Site
										{
											OFFSET	0.586531	-0.000000	0.000000
										}
									}
								}
								JOINT lthumb
								{
									OFFSET	1.221860	-0.000000	0.000000
									CHANNELS 3 Zrotation Yrotation Xrotation
									End Site
									{
										OFFSET	0.595487	-0.000000	0.595487
									}
								}
							}
						}
					}
				}
				JOINT rclavicle
				{
					OFFSET	-0.034945	2.110023	-0.018114
					CHANNELS 3 Zrotation Yrotation Xrotation
					JOINT rhumerus
					{
						OFFSET	-3.230153	0.558301	0.310511
						CHANNELS 3 Zrotation Yrotation Xrotation
						JOINT rradius
						{
							OFFSET	-5.589760	-0.000102	0.000137
							CHANNELS 3 Zrotation Yrotation Xrotation
							JOINT rwrist
							{
								OFFSET	-2.480600	-0.000000	0.000000
								CHANNELS 3 Zrotation Yrotation Xrotation
								JOINT rhand
								{
									OFFSET	-1.240300	-0.000000	0.000000
									CHANNELS 3 Zrotation Yrotation Xrotation
									JOINT rfingers
									{
										OFFSET	-0.816009	-0.000000	0.000000
										CHANNELS 3 Zrotation Yrotation Xrotation
										End Site
										{
											OFFSET	-0.657887	-0.000000	0.000000
										}
									}
								}
								JOINT rthumb
								{
									OFFSET	-1.240300	-0.000000	0.000000
									CHANNELS 3 Zrotation Yrotation Xrotation
									End Site
									{
										OFFSET	-0.667932	-0.000000	0.667932
									}
								}
							}
						}
					}
				}
			}
		}
	}
}
MOTION
Frames:	10
Frame Time:	0.008333
	0.494596	16.457399	33.830002	-175.632004	0.483182	-152.744995	0.000000	0.000000	0.000000	-22.464415	16.067924	-40.031879	10.139550	17.487581	59.953770	-5.696921	48.728085	15.021242	1.385194	7.446890	21.046267	0.000000	0.000000	0.000000	31.544720	16.682243	-41.533142	-5.152692	-13.553714	41.478249	-5.189320	-15.060452	-49.514462	-3.579723	-11.579087	34.258743	3.547490	1.314490	-18.414497	1.403490	3.435130	-10.722800	0.041142	2.583370	-1.172410	-1.697010	0.687250	-13.973399	1.130420	-2.102320	34.832001	0.131776	-2.115840	14.295300	-1.697010	-0.000000	0.000000	-82.020660	22.663439	13.705571	10.081628	-16.867153	-1.498546	0.000000	0.000000	-0.782739	-29.850023	18.839182	-10.498313	-7.125019	0.000000	0.000000	-49.446194	42.835625	3.672163	-1.697010	-0.000000	0.000000	80.862091	-16.776335	30.667751	-8.070560	13.667175	-0.968736	0.000000	0.000000	-1.793954	21.288843	6.987919	2.714133	7.125019	0.000000	0.000000	33.017536	-22.051498	22.101982
	0.492669	16.453699	33.822701	-175.531998	0.414198	-152.768005	0.000000	0.000000	0.000000	-22.389191	16.175486	-40.052200	10.136230	17.485748	59.942711	-5.507010	48.623489	15.635150	1.249038	7.085800	19.969807	0.000000	0.000000	0.000000	31.717735	16.520578	-41.429985	-5.148732	-13.549356	41.461357	-5.400305	-14.721923	-50.106091	-3.769101	-11.846641	35.191601	3.669560	1.343020	-18.483000	1.430670	3.446870	-10.685200	0.009124	2.584740	-1.094320	-1.740210	0.688398	-13.885299	1.145850	-2.125460	34.896301	0.140064	-2.139340	14.305799	-1.740210	0.000000	0.000000	-82.031395	22.583654	13.512626	10.054818	-16.825279	-1.490777	0.000000	-0.000002	-0.804509	-29.802267	18.972679	-10.548429	-7.125019	0.000000	0.000000	-49.510632	42.947472	3.485922	-1.740210	0.000000	0.000000	80.840950	-16.816477	30.697517	-8.082633	13.686722	-0.971590	0.000000	0.000000	-1.679248	21.114397	7.033435	2.707181	7.125019	0.000000	0.000000	32.908211	-22.030025	22.014908
	0.492756	16.456600	33.814701	-175.572006	0.402234	-152.798996	0.000000	0.000000	0.000000	-22.452169	16.245132	-40.019268	10.131233	17.482992	59.926079	-6.181509	49.127422	13.656499	1.502998	7.743454	21.937540	0.000000	0.000000	0.000000	31.614511	16.618586	-41.355576	-5.145679	-13.546000	41.448322	-5.457990	-14.913107	-50.413506	-3.887158	-12.008713	35.762814	3.652860	1.391740	-18.495802	1.376970	3.513620	-10.684901	-0.025619	2.617270	-1.082830	-1.785230	0.640519	-13.747402	1.162930	-2.216020	34.913799	0.140113	-2.189900	14.285098	-1.785230	0.000000	0.000000	-81.939331	22.542770	13.382061	9.996508	-16.734119	-1.473942	0.000000	0.000000	-0.714019	-29.907480	18.950975	-10.580976	-7.125019	0.000000	0.000000	-49.558357	42.913651	3.551160	-1.785230	0.000000	0.000000	80.890709	-16.893461	30.738895	-8.062346	13.653886	-0.966795	0.000000	0.000000	-1.735378	21.061152	7.061290	2.710327	7.125019	0.000000	0.000000	32.871140	-22.010906	21.996719
	0.491973	16.443300	33.811798	-175.588013	0.338895	-152.824005	0.000000	0.000000	0.000000	-22.457399	16.242907	-40.037552	10.158118	17.497812	60.015533	-6.967282	49.587147	11.144147	1.825999	8.493831	24.224361	0.000000	0.000000	0.000000	31.563965	16.743029	-41.259396	-5.124905	-13.523090	41.359547	-5.477891	-14.724361	-50.387966	-3.851574	-11.960231	35.591438	3.629490	1.389700	-18.469801	1.407340	3.508360	-10.658301	0.018301	2.614250	-1.069880	-1.941730	0.632164	-13.735799	1.204370	-2.219320	34.988705	0.181938	-2.212960	14.318701	-1.941730	-0.000000	-0.000000	-82.018257	22.483130	13.130099	9.958085	-16.673988	-1.462900	0.000000	0.000000	-0.580350	-29.842716	18.904968	-10.529812	-7.125019	0.000000	0.000000	-49.487644	42.888218	3.586137	-1.941730	-0.000000	-0.000000	80.845634	-16.870167	30.528131	-8.044769	13.625415	-0.962650	0.000000	-0.000002	-1.367107	21.277840	6.983566	2.710918	7.125019	0.000000	0.000000	33.012531	-22.056637	22.092102
	0.493708	16.454399	33.804199	-175.548996	0.225889	-152.865005	0.000000	0.000000	0.000000	-22.357832	16.154182	-39.949017	10.149238	17.492924	59.985992	-7.104685	49.563610	10.517287	1.892404	8.638269	24.670177	0.000000	0.000000	0.000000	31.678335	16.659655	-41.217113	-5.141861	-13.541794	41.432022	-5.435374	-14.276796	-50.005100	-3.813209	-11.907605	35.405907	3.695781	1.365300	-18.374701	1.443980	3.450610	-10.607201	0.006801	2.576080	-1.063840	-2.036250	0.640502	-13.950101	1.255410	-2.203760	35.126801	0.217735	-2.212480	14.432301	-2.036250	0.000000	0.000000	-82.090294	22.286377	12.751451	9.896878	-16.578100	-1.445388	-0.000000	0.000002	-0.468018	-29.875422	19.072147	-10.631170	-7.125019	0.000000	0.000000	-49.623936	43.013283	3.385664	-2.036250	0.000000	0.000000	80.805679	-16.754463	30.448229	-8.035556	13.610495	-0.960481	0.000000	-0.000002	-1.185313	21.477764	7.058838	2.768208	7.125019	0.000000	0.000000	33.103828	-21.966837	22.268950
	0.491946	16.444000	33.801998	-175.688004	0.231267	-152.828003	0.000000	0.000000	0.000000	-22.526569	16.082706	-40.013596	10.166816	17.502598	60.044460	-6.891928	49.533386	11.369393	1.820711	8.482193	24.188528	0.000000	0.000000	0.000000	31.442896	16.829304	-41.224049	-5.130485	-13.529252	41.383404	-5.476754	-14.631807	-50.336414	-3.750394	-11.820631	35.100365	3.571690	1.356130	-18.322601	1.396970	3.471020	-10.657800	0.024890	2.592880	-1.145920	-1.996120	0.631692	-13.970302	1.198610	-2.211830	35.159199	0.185320	-2.219260	14.451000	-1.996120	0.000000	0.000000	-82.057487	22.362377	12.889037	9.943381	-16.650953	-1.458686	-0.000000	0.000002	-0.642408	-29.827688	19.206171	-10.681262	-7.125019	0.000000	0.000000	-49.689476	43.125252	3.198140	-1.996120	0.000000	0.000000	80.779747	-16.817987	30.518332	-8.118181	13.744258	-0.980018	0.000000	-0.000002	-1.440742	21.893242	6.585579	2.638791	7.125019	0.000000	0.000000	33.460171	-22.342207	22.257137
	0.489250	16.455200	33.796101	-175.669006	0.211589	-152.822021	0.000000	0.000000	0.000000	-22.564442	16.134312	-39.984272	10.136259	17.485765	59.942822	-6.970599	49.616947	11.182096	1.847802	8.541585	24.371544	0.000000	0.000000	0.000000	31.524700	16.610027	-41.310940	-5.156723	-13.558145	41.495453	-5.459661	-14.116230	-50.012188	-3.879050	-11.997693	35.723808	3.638078	1.385070	-18.234695	1.368080	3.522610	-10.729801	-0.042511	2.619770	-1.264180	-1.849430	0.668970	-13.795100	1.111050	-2.202300	35.195698	0.124321	-2.219160	14.425100	-1.849430	0.000000	0.000000	-81.991585	22.509535	12.996631	9.958907	-16.675268	-1.463137	0.000000	0.000000	-0.765000	-29.637516	19.045216	-10.517499	-7.125019	0.000000	0.000000	-49.462231	43.030396	3.335701	-1.849430	0.000000	0.000000	80.781258	-16.957848	30.892122	-8.229063	13.923502	-1.006531	0.000000	0.000000	-1.970805	22.167131	6.119151	2.486789	7.125019	0.000000	0.000000	33.738449	-22.726408	22.151142
	0.484355	16.451401	33.790699	-175.669998	0.083976	-152.834000	0.000000	0.000000	0.000000	-22.545847	16.090084	-39.923130	10.120406	17.477007	59.890030	-6.287276	49.153507	13.262280	1.608781	7.998651	22.709986	0.000000	0.000000	0.000000	31.563753	16.413048	-41.348793	-5.153672	-13.554790	41.482430	-5.498526	-14.377439	-50.285519	-3.759502	-11.833303	35.144802	3.784540	1.416080	-18.119600	1.303860	3.570120	-10.813999	-0.194888	2.640320	-1.404750	-1.841480	0.698915	-13.621400	1.186890	-2.233630	35.275501	0.146690	-2.236540	14.424001	-1.841480	0.000000	0.000000	-81.845551	22.727968	13.497700	10.061753	-16.836117	-1.492785	-0.000000	0.000002	-1.206488	-29.591946	19.111231	-10.532733	-7.125019	0.000000	0.000000	-49.480827	43.089073	3.236180	-1.841480	0.000000	0.000000	80.854874	-17.086615	30.823629	-8.236343	13.935243	-1.008284	0.000000	0.000000	-1.968154	22.282677	6.081901	2.485981	7.125019	0.000000	0.000000	33.812359	-22.745796	22.204609
	0.478723	16.453199	33.776299	-175.772003	-0.167746	-153.022003	0.000000	0.000000	0.000000	-22.497988	16.023823	-39.524879	10.077537	17.453222	59.747196	-6.186369	49.031502	13.484300	1.602773	7.984419	22.666773	0.000000	0.000000	0.000000	31.697132	15.777947	-41.356083	-5.166706	-13.569106	41.538013	-5.288448	-14.655525	-49.663754	-3.483532	-11.439441	33.776661	3.857430	1.402010	-17.951700	1.218860	3.547090	-10.834601	-0.339521	2.618960	-1.505170	-1.791480	0.677135	-13.404000	1.201670	-2.318321	35.273705	0.130699	-2.274960	14.375299	-1.791480	-0.000000	0.000000	-81.666374	22.875681	13.945266	10.116352	-16.921370	-1.508638	0.000000	0.000000	-1.533068	-29.578697	19.081617	-10.511832	-7.125019	0.000000	0.000000	-49.452141	43.068157	3.268985	-1.791480	-0.000000	0.000000	80.953804	-17.265551	30.756203	-8.221422	13.911160	-1.004691	0.000000	0.000000	-1.905137	22.048058	6.506028	2.627462	7.125019	0.000000	0.000000	33.567078	-22.395050	22.311127
	0.477600	16.447001	33.769100	-175.830994	-0.273358	-153.274994	0.000000	0.000000	0.000000	-22.450525	16.038773	-39.165871	10.064690	17.446070	59.704357	-6.478241	49.185467	12.520320	1.696408	8.202816	23.331816	0.000000	0.000000	0.000000	31.610395	15.854109	-40.931454	-5.150130	-13.550897	41.467312	-5.581867	-13.689300	-50.244015	-3.574201	-11.571143	34.231236	3.876359	1.419790	-17.655998	1.139560	3.573570	-10.865702	-0.447524	2.620500	-1.683060	-1.678440	0.632139	-13.151700	1.171810	-2.464710	35.323505	0.073863	-2.345020	14.342499	-1.678440	-0.000000	0.000000	-81.469635	23.049665	14.415562	10.145915	-16.967497	-1.517254	0.000000	-0.000002	-1.803792	-29.506008	19.111538	-10.496953	-7.125019	0.000000	0.000000	-49.429047	43.103020	3.205850	-1.678440	-0.000000	0.000000	81.070122	-17.480124	30.702719	-8.207738	13.889045	-1.001405	0.000000	0.000000	-1.928240	21.784288	6.952839	2.769753	7.125019	0.000000	0.000000	33.301601	-22.026539	22.408302
